<svg width="27" height="22" viewBox="0 0 27 22" fill="none" xmlns="http://www.w3.org/2000/svg">
<path d="M10 1.75C7.93946 1.75 6.25001 3.43945 6.25001 5.5H3.75001C3.41797 5.5 3.14454 5.75879 3.12501 6.09082L2.50001 17.3408C2.49024 17.5117 2.55372 17.6826 2.6709 17.8047C2.78809 17.9316 2.95411 18 3.12501 18H16.875C17.0459 18 17.2119 17.9316 17.3291 17.8047C17.4463 17.6826 17.5098 17.5117 17.5 17.3408L16.875 6.09082C16.8555 5.75879 16.582 5.5 16.25 5.5H13.75C13.75 3.43945 12.0606 1.75 10 1.75ZM10 3C11.377 3 12.5 4.12305 12.5 5.5H7.50001C7.50001 4.12305 8.62305 3 10 3ZM4.34083 6.75H6.25001V9.25H7.50001V6.75H12.5V9.25H13.75V6.75H15.6592L16.2109 16.75H3.78907L4.34083 6.75Z" fill="black"/>
<circle cx="20" cy="14.5" r="6.5" fill="#D4769A" stroke="#F8F7F5"/>
<path d="M19.4909 17.5V11.5H20.5091V17.5H19.4909ZM17 15.0091V13.9909H23V15.0091H17Z" fill="white"/>
</svg>
