<svg width="5" height="9" viewBox="0 0 5 9" fill="none" xmlns="http://www.w3.org/2000/svg">
<path d="M0.000111018 0.600065C0.00260551 0.705574 0.0466923 0.805822 0.122767 0.878972L3.83995 4.59616L0.122768 8.31335C0.0844499 8.35062 0.0539919 8.3952 0.0331932 8.44445C0.0123945 8.49369 0.00167698 8.54661 0.00167387 8.60006C0.00169479 8.67964 0.0254462 8.7574 0.0698917 8.8234C0.114337 8.88941 0.177457 8.94065 0.251182 8.9706C0.324906 9.00054 0.405886 9.00782 0.483768 8.99149C0.561649 8.97517 0.632893 8.936 0.688393 8.87897L4.68839 4.87897C4.76338 4.80395 4.8055 4.70223 4.8055 4.59616C4.8055 4.49009 4.76338 4.38836 4.68839 4.31335L0.688392 0.313347C0.632531 0.255256 0.560427 0.215391 0.481525 0.198976C0.402623 0.182559 0.320603 0.190357 0.246208 0.221348C0.171813 0.252338 0.108513 0.305078 0.0646004 0.372655C0.0206876 0.440231 -0.00179028 0.519496 0.000111018 0.600065Z" fill="black"/>
</svg>
