<svg width="16" height="17" viewBox="0 0 16 17" fill="none" xmlns="http://www.w3.org/2000/svg">
<path d="M8.00001 0.25C5.93946 0.25 4.25001 1.93945 4.25001 4H1.75001C1.41797 4 1.14454 4.25879 1.12501 4.59082L0.500006 15.8408C0.490241 16.0117 0.553717 16.1826 0.670904 16.3047C0.788092 16.4316 0.954107 16.5 1.12501 16.5H14.875C15.0459 16.5 15.2119 16.4316 15.3291 16.3047C15.4463 16.1826 15.5098 16.0117 15.5 15.8408L14.875 4.59082C14.8555 4.25879 14.582 4 14.25 4H11.75C11.75 1.93945 10.0606 0.25 8.00001 0.25ZM8.00001 1.5C9.37696 1.5 10.5 2.62305 10.5 4H5.50001C5.50001 2.62305 6.62305 1.5 8.00001 1.5ZM2.34083 5.25H4.25001V7.75H5.50001V5.25H10.5V7.75H11.75V5.25H13.6592L14.2109 15.25H1.78907L2.34083 5.25Z" fill="black"/>
</svg>
