<svg width="14" height="10" viewBox="0 0 14 10" fill="none" xmlns="http://www.w3.org/2000/svg">
<path d="M13.3203 -0.00648507C13.1471 -0.00132432 12.9827 0.0710618 12.862 0.195338L4.66668 8.39065L1.13804 4.862C1.07661 4.79802 1.00303 4.74694 0.921607 4.71175C0.840188 4.67656 0.752566 4.65797 0.663872 4.65707C0.575179 4.65617 0.487197 4.67297 0.405079 4.7065C0.32296 4.74002 0.248357 4.7896 0.185638 4.85232C0.122919 4.91503 0.0733448 4.98964 0.0398187 5.07176C0.0062926 5.15387 -0.0105114 5.24186 -0.00960905 5.33055C-0.00870676 5.41924 0.00988365 5.50687 0.0450734 5.58828C0.0802632 5.6697 0.131345 5.74328 0.195327 5.80471L4.19533 9.80471C4.32036 9.92969 4.4899 9.9999 4.66668 9.9999C4.84346 9.9999 5.01301 9.92969 5.13804 9.80471L13.8047 1.13805C13.901 1.0444 13.9668 0.923844 13.9935 0.792164C14.0201 0.660484 14.0064 0.523828 13.954 0.400104C13.9016 0.276381 13.8131 0.171361 13.7 0.0988085C13.587 0.0262559 13.4546 -0.0104453 13.3203 -0.00648507Z" fill="white"/>
</svg>
