<svg width="22" height="16" viewBox="0 0 22 16" fill="none" xmlns="http://www.w3.org/2000/svg">
<path d="M20.4813 0.490242C20.2215 0.497983 19.9749 0.606562 19.7938 0.792976L7.50082 13.0859L2.20785 7.79298C2.1157 7.697 2.00533 7.62038 1.8832 7.5676C1.76108 7.51481 1.62964 7.48693 1.4966 7.48557C1.36356 7.48422 1.23159 7.50942 1.10841 7.55971C0.985234 7.61 0.873329 7.68436 0.779251 7.77844C0.685172 7.87252 0.610811 7.98443 0.560521 8.1076C0.510232 8.23078 0.485026 8.36275 0.48638 8.49579C0.487733 8.62883 0.515619 8.76027 0.568404 8.8824C0.621188 9.00452 0.697811 9.11489 0.793784 9.20704L6.79378 15.207C6.98133 15.3945 7.23564 15.4998 7.50082 15.4998C7.76599 15.4998 8.0203 15.3945 8.20785 15.207L21.2078 2.20704C21.3524 2.06658 21.451 1.88574 21.491 1.68822C21.531 1.4907 21.5103 1.28571 21.4318 1.10013C21.3532 0.91454 21.2205 0.757011 21.0509 0.648182C20.8812 0.539353 20.6827 0.484302 20.4813 0.490242Z" fill="black"/>
</svg>
