<svg width="16" height="12" viewBox="0 0 16 12" fill="none" xmlns="http://www.w3.org/2000/svg">
<path d="M3.5 0.5C1.57422 0.5 0 2.07422 0 4C0 5.92578 1.57422 7.5 3.5 7.5C5.42578 7.5 7 5.92578 7 4C7 2.07422 5.42578 0.5 3.5 0.5ZM6 0.5V0.507813C6.37891 0.773438 6.69922 1.10938 6.94531 1.5H8.5C8.78125 1.5 9 1.71875 9 2V9.5H4.90625C4.69922 8.92188 4.14844 8.5 3.5 8.5C2.85156 8.5 2.30078 8.92188 2.09375 9.5H1.5C1.21875 9.5 1 9.28125 1 9V7.4375H0.988281C0.605469 7.19141 0.269531 6.875 0.0117188 6.5H0V9C0 9.82422 0.675781 10.5 1.5 10.5H2.09375C2.30078 11.0781 2.85156 11.5 3.5 11.5C4.14844 11.5 4.69922 11.0781 4.90625 10.5H11.0664C11.2734 11.0781 11.8242 11.5 12.4727 11.5C13.1211 11.5 13.6719 11.0781 13.8789 10.5H14.5C15.3203 10.5 16 9.82422 16 9V7.30469C16 7.00781 15.9102 6.71484 15.7461 6.46875L14.1875 4.16797C13.9062 3.75 13.4375 3.5 12.9375 3.5H10V2C10 1.17578 9.32422 0.5 8.5 0.5H6ZM3.5 1.5C4.88672 1.5 6 2.61328 6 4C6 5.38672 4.88672 6.5 3.5 6.5C2.11328 6.5 1 5.38672 1 4C1 2.61328 2.11328 1.5 3.5 1.5ZM3 2.5V4.5H5V3.5H4V2.5H3ZM10 4.5H12.9375C13.1055 4.5 13.2617 4.58594 13.3555 4.72266V4.72656L14.9141 7.02734C14.9688 7.10937 15 7.20313 15 7.30469V9C15 9.28125 14.7812 9.5 14.5 9.5H13.8789C13.6719 8.92188 13.1211 8.5 12.4727 8.5C11.8242 8.5 11.2734 8.92188 11.0664 9.5H10V4.5ZM3.5 9.5C3.78125 9.5 4 9.71875 4 10C4 10.2812 3.78125 10.5 3.5 10.5C3.21875 10.5 3 10.2812 3 10C3 9.71875 3.21875 9.5 3.5 9.5ZM12.4727 9.5C12.7539 9.5 12.9727 9.71875 12.9727 10C12.9727 10.2812 12.7539 10.5 12.4727 10.5C12.1914 10.5 11.9727 10.2812 11.9727 10C11.9727 9.71875 12.1914 9.5 12.4727 9.5Z" fill="black"/>
</svg>
