<svg width="13" height="14" viewBox="0 0 13 14" fill="none" xmlns="http://www.w3.org/2000/svg">
<path d="M6.5 0.5C2.91797 0.5 0 3.41797 0 7C0 10.582 2.91797 13.5 6.5 13.5C10.082 13.5 13 10.582 13 7C13 3.41797 10.082 0.5 6.5 0.5ZM6.5 1.5C9.54297 1.5 12 3.95703 12 7C12 10.043 9.54297 12.5 6.5 12.5C3.45703 12.5 1 10.043 1 7C1 3.95703 3.45703 1.5 6.5 1.5ZM4.5 4.29297L3.79297 5L4.14844 5.35156L5.79297 7L4.14844 8.64844L3.79297 9L4.5 9.70703L4.85156 9.35156L6.5 7.70703L8.14844 9.35156L8.5 9.70703L9.20703 9L8.85156 8.64844L7.20703 7L8.85156 5.35156L9.20703 5L8.5 4.29297L8.14844 4.64844L6.5 6.29297L4.85156 4.64844L4.5 4.29297Z" fill="#DC4200"/>
</svg>
