<svg width="18" height="17" viewBox="0 0 18 17" fill="none" xmlns="http://www.w3.org/2000/svg">
<path d="M5.25 0.5C2.69907 0.5 0.676139 2.38408 0.257324 4.89697L0.25 4.94824V5.5C0.25 8.33854 2.43058 10.912 4.5127 12.834C6.59481 14.7559 8.67285 16.0322 8.67285 16.0322L9 16.2349L9.32715 16.0322C9.32715 16.0322 11.4052 14.7559 13.4873 12.834C15.5694 10.912 17.75 8.33854 17.75 5.5V4.96289L17.7451 4.92627C17.4574 2.48067 15.3241 0.5 12.75 0.5C11.1807 0.5 9.90419 1.30841 9 2.39941C8.09581 1.30841 6.81933 0.5 5.25 0.5ZM5.25 1.75C6.65064 1.75 7.82008 2.49993 8.46289 3.57129L9 4.46484L9.53711 3.57129C10.1799 2.49993 11.3494 1.75 12.75 1.75C14.672 1.75 16.2824 3.26349 16.5 5.06299V5.5C16.5 7.66146 14.6181 10.088 12.6377 11.916C10.8206 13.5933 9.28809 14.535 9 14.7163C8.71191 14.535 7.17937 13.5933 5.3623 11.916C3.38192 10.088 1.5 7.66146 1.5 5.5V5.0874C1.83703 3.10996 3.30676 1.75 5.25 1.75Z" fill="black"/>
</svg>
