<svg width="26" height="26" viewBox="0 0 26 26" fill="none" xmlns="http://www.w3.org/2000/svg">
<path fill-rule="evenodd" clip-rule="evenodd" d="M12.9029 0.000180378C13.2438 -0.00906878 14.0747 0.334132 14.6723 1.78095C15.3789 3.49164 15.4961 4.79484 15.5358 5.23593C15.538 5.26116 15.5401 5.28357 15.5419 5.30306C15.5763 5.66354 15.8556 9.5336 14.2679 12.8512C14.1488 13.0689 13.8659 13.569 13.6865 13.8282C13.4625 14.1523 13.4719 14.5875 13.7655 14.9783C14.0003 15.2909 14.2167 15.5237 14.2957 15.601C15.3634 16.647 16.7658 17.513 18.1938 17.7352C18.4053 17.5639 18.9581 17.0033 19.4769 16.1312C20.1252 15.041 20.9461 13.6661 22.9811 12.3328C23.3513 12.0759 24.2932 11.6204 25.0988 11.8537C25.5266 12.0551 26.2401 12.7789 25.9197 13.9716C25.4851 15.5895 22.3211 17.6531 20.5479 17.9218C19.4496 18.0883 19.1344 18.0584 18.9513 18.2008C18.8117 18.3095 18.749 18.5183 18.4742 18.991C17.9793 19.8423 17.9332 22.385 17.9332 23.6408L17.9316 23.6837C17.9098 24.2895 17.8621 25.6112 17.7156 26C17.5834 25.9557 17.2114 25.5533 16.7186 24.8731C16.0852 23.9988 14.7447 23.7916 13.9859 23.8044C13.227 23.8173 11.7276 23.9395 10.6571 24.8199C10.5089 24.9958 10.1889 25.3741 10.0957 25.4797C10.0795 25.4981 10.062 25.5187 10.0431 25.5411C9.92757 25.6781 9.76025 25.8765 9.4872 26C9.3629 25.6941 9.10834 24.9988 9.07332 24.6821C8.96026 24.1635 8.82183 23.4274 8.68024 22.6744C8.48431 21.6329 8.28224 20.5587 8.13267 19.9816C7.9123 19.1314 7.69444 18.7689 7.55072 18.5298C7.52248 18.4827 7.49702 18.4405 7.47509 18.4002C6.86314 18.3848 5.44924 18.2972 4.68928 18.0692C3.73944 17.7841 1.94008 16.7085 1.15458 15.8167C1.09586 15.7499 1.03863 15.6857 0.983262 15.6235C0.297725 14.8538 -0.120992 14.3837 0.031184 13.1503C0.181038 11.9353 1.11974 12.1483 1.45094 12.2235C1.48318 12.2308 1.50965 12.2368 1.52907 12.2401C1.74832 12.2768 3.67542 12.8561 5.9223 14.9891C6.34 15.3962 7.35181 16.4967 8.05816 17.6421C8.61205 17.502 9.87275 17.1381 10.4434 16.7843C10.5713 16.705 10.6978 16.6363 10.8263 16.5665C11.414 16.2472 12.042 15.9062 13.028 14.4291C12.6266 13.4471 11.8872 11.27 11.8239 10.4292C11.8079 10.2169 11.7633 9.92713 11.7081 9.56857C11.4751 8.05691 11.0539 5.32373 11.802 2.02837C11.9161 1.37789 12.3135 0.0624369 12.9029 0.000180378ZM12.9312 0.349657C13.3271 0.744612 14.1838 1.9372 14.4432 3.54784C14.7673 5.56113 14.8284 7.03875 14.6266 8.64571C14.6081 8.79366 14.5902 8.94143 14.5725 9.08938C14.3969 10.5484 14.218 12.0349 13.2265 14.0751C13.0416 13.3917 12.6693 11.9401 12.6598 11.6006C12.656 11.4696 12.6261 11.2796 12.5829 11.0044C12.4647 10.2519 12.2462 8.86156 12.187 6.29181C12.1354 4.04894 12.3436 2.51631 12.5848 1.71748C12.6741 1.30275 12.8683 0.448554 12.9312 0.349657ZM0.72248 13.0273C0.864808 12.9637 1.25658 12.8324 1.84792 12.9954C2.58706 13.1991 3.46518 13.69 4.69393 14.7038C5.92267 15.7174 6.70799 16.8893 7.25761 17.81C6.85886 17.8223 5.89917 17.7621 5.21586 17.517C4.43947 17.2385 4.15778 17.1126 2.76116 16.1626C1.115 15.0429 0.452966 14.0588 0.72248 13.0273ZM24.0996 12.6538C24.6433 12.5447 25.2585 12.6872 25.4037 12.7677C25.3396 13.599 25.0345 14.6264 23.4364 16.0066C23.1472 16.2563 21.888 17.2155 21.0826 17.3397C21.007 17.3514 20.9305 17.363 20.8532 17.3748L20.8522 17.3749L20.8508 17.3752C20.273 17.4629 19.6494 17.5576 19.0111 17.7288C19.5608 16.8081 20.5608 15.4285 21.6452 14.2597C22.9206 12.8851 23.4134 12.7885 24.0092 12.6717L24.0096 12.6716C24.0238 12.6688 24.038 12.6661 24.0523 12.6632C24.068 12.6601 24.0837 12.657 24.0996 12.6538ZM9.6994 17.5937C10.7434 17.0662 11.8616 16.5011 12.2768 15.9771C12.5116 15.7434 13.0162 15.151 13.1563 14.6501C13.503 15.1365 14.3955 16.2404 15.1928 16.7654C16.1894 17.4216 16.689 17.6951 18.084 17.9819C17.9709 18.495 17.732 19.5549 17.6818 19.6898C17.6315 19.8248 17.4988 20.5585 17.4388 20.9085C17.3175 21.5972 17.116 23.2131 17.2812 24.1673C17.2063 24.2409 16.9985 24.3661 16.766 24.2777C16.5931 24.2121 16.437 24.0922 16.3091 23.994C16.222 23.9271 16.1478 23.8702 16.0907 23.8475C15.9497 23.7916 15.1077 23.4732 13.9323 23.4775C12.757 23.4818 11.6286 23.7572 10.9448 24.0368C10.2609 24.3164 10.039 24.5799 9.68277 25.0042C9.61913 24.0665 9.4519 22.0484 9.29136 21.4787C9.22549 21.2451 9.19261 21.0702 9.15247 20.8571C9.07035 20.421 8.95821 19.825 8.47149 18.238C8.82815 18.0339 9.25717 17.8172 9.6994 17.5937Z" fill="#D4769A"/>
</svg>
