<svg width="321" height="250" viewBox="0 0 321 250" fill="none" xmlns="http://www.w3.org/2000/svg">
<g opacity="0.2">
<path d="M45.3878 157.147L44.7087 156.965L12.8458 203.256L6.78497 146.804L0.0823921 145.008L7.10402 210.432L13.8066 212.228L12.9581 204.194L45.3878 157.147Z" fill="#939393"/>
<path d="M51.3018 158.732L35.4161 218.018L42.1187 219.814L58.0043 160.528L51.3018 158.732Z" fill="#939393"/>
<path d="M109.607 174.355L108.928 174.173L80.6837 207.635L70.6643 163.92L63.9617 162.124L74.2695 206.461L68.7776 226.957L75.4802 228.753L80.9721 208.257L109.607 174.355Z" fill="#939393"/>
<path d="M155.877 231.958C149.258 239.353 141.324 242.492 133.455 241.655C117.933 239.856 107.696 228.852 107.131 212.634C106.63 196.523 116.473 180.824 131.737 181.555C143.593 182.1 154.471 191.731 157.929 204.278L160.629 194.199C158.799 191.53 150.267 184.342 140.935 181.842C124.221 177.363 105.318 186.822 100.825 203.591C96.3544 220.276 107.231 237.714 124.03 242.215C139.047 246.239 149.257 240.715 156.38 232.457L155.877 231.958Z" fill="#939393"/>
<path d="M210.815 201.473L204.415 225.357L174.89 217.446L181.29 193.562L174.587 191.766L158.701 251.052L165.404 252.848L174.731 218.039L204.256 225.95L194.929 260.759L201.632 262.555L217.517 203.269L210.815 201.473Z" fill="#939393"/>
<path d="M270.711 217.523L260.181 256.821C257.617 266.391 248.825 273.748 238.163 271.799C225.588 269.519 220.646 259.117 224.39 245.142L234.398 207.793L227.696 205.997L217.688 243.346C213.557 258.761 222.302 268.547 234.944 271.935C246.906 275.14 257.597 268.837 260.775 256.98L271.304 217.682L270.711 217.523Z" fill="#939393"/>
<path d="M301.894 289.42L309.021 291.33L297.051 245.731L320.653 231.63L319.719 231.38L279.206 255.655L288.17 222.201L281.468 220.405L265.582 279.691L272.285 281.487L278.979 256.502L291.221 249.161L301.894 289.42Z" fill="#939393"/>
<path d="M264.154 197.785C264.154 197.785 251.327 202.303 252.37 205.026C252.911 206.437 265.994 202.385 265.994 202.385C266.388 202.144 267.018 201.245 266.382 199.578C265.745 197.91 264.631 197.687 264.154 197.785Z" fill="#939393"/>
<path fill-rule="evenodd" clip-rule="evenodd" d="M227.708 -57.6691C230.336 -57.0402 235.997 -52.7311 237.628 -40.5239C239.558 -26.0902 237.805 -15.9582 237.211 -12.5289C237.177 -12.3328 237.147 -12.1585 237.122 -12.0067C236.652 -9.20012 230.918 20.7473 212.019 42.6729C210.665 44.0811 207.482 47.2963 205.582 48.8963C203.208 50.8963 202.395 54.2193 203.848 57.7871C205.009 60.6416 206.192 62.8523 206.639 63.6013C212.684 73.7305 221.657 83.1799 232.134 87.7949C234.101 86.9284 239.472 83.8072 245.217 78.2512C252.397 71.3063 261.476 62.5537 279.763 56.6076C283.119 55.417 291.254 53.8909 296.946 57.3143C299.811 59.7198 303.799 66.6772 298.922 75.0729C292.305 86.4618 263.891 95.6362 249.772 94.0389C241.028 93.0502 238.676 92.1773 236.985 92.8821C235.695 93.4206 234.791 94.8771 231.726 97.9017C226.207 103.348 220.683 122.553 218.129 132.085L218.029 132.407C216.63 136.961 213.577 146.895 211.665 149.546C210.743 148.938 208.715 145.121 206.327 138.948C203.257 131.012 193.418 126.691 187.584 125.232C181.749 123.773 170.024 121.625 160.041 126.112C158.548 127.144 155.33 129.359 154.402 129.969C154.24 130.075 154.064 130.197 153.874 130.328C152.711 131.13 151.027 132.293 148.686 132.671C148.357 130.094 147.823 124.294 148.199 121.819C148.388 117.65 148.825 111.78 149.273 105.774C149.892 97.4663 150.53 88.8987 150.559 84.2115C150.601 77.3064 149.671 74.1082 149.057 71.9984C148.937 71.5835 148.828 71.2104 148.742 70.8595C144.09 69.4881 133.446 65.9232 128.093 62.6341C121.403 58.5225 109.818 46.6677 105.62 38.2877C105.306 37.6605 104.999 37.0561 104.702 36.4705C101.02 29.2219 98.7712 24.7955 102.445 15.7455C106.063 6.83058 112.814 10.3727 115.196 11.6227C115.428 11.7442 115.618 11.8439 115.76 11.9086C117.364 12.6372 130.935 20.9861 143.795 41.7842C146.164 45.7308 151.67 56.1586 154.747 66.3013C159.271 66.3739 169.66 66.1974 174.747 64.6824C175.888 64.3428 176.996 64.0805 178.121 63.8145C183.269 62.5964 188.769 61.2954 199.319 52.1063C198.245 43.8299 197.013 25.7883 198.239 19.2771C198.548 17.6323 198.796 15.3416 199.102 12.5068C200.394 0.555116 202.729 -21.054 215.157 -44.5324C217.353 -49.2357 223.07 -58.4053 227.708 -57.6691ZM227.214 -54.9583C229.441 -51.1487 233.572 -40.3398 232.281 -27.5827C230.668 -11.6365 228.13 -0.295682 223.318 11.4877C222.875 12.5725 222.438 13.6575 222.001 14.7441C217.69 25.4582 213.297 36.3742 201.559 49.8267C201.534 44.2601 201.637 32.4784 202.254 29.8821C202.491 28.8798 202.649 27.3769 202.879 25.1993C203.504 19.2453 204.659 8.24401 209.432 -11.3824C213.599 -28.512 218.31 -39.7181 221.78 -45.2868C223.307 -48.2515 226.531 -54.3367 227.214 -54.9583ZM107.986 16.2298C109.204 16.039 112.47 15.8459 116.665 18.2959C121.908 21.3578 127.63 26.8846 134.973 37.0993C142.316 47.3132 145.944 57.8181 148.278 65.9337C145.201 65.2096 137.978 62.7843 133.247 59.5224C127.871 55.8162 125.971 54.2831 117.213 44.2083C106.891 32.3333 103.825 23.5059 107.986 16.2298ZM287.671 61.3376C292.055 61.6244 296.473 63.9679 297.42 64.8767C295.239 71.055 290.814 78.2276 275.776 85.4261C273.055 86.7283 261.466 91.4259 255.049 90.7176C254.447 90.6512 253.838 90.5825 253.222 90.5134L253.214 90.512L253.203 90.5113C248.602 89.992 243.636 89.4322 238.403 89.4223C244.483 83.5612 254.942 75.1404 265.619 68.4935C278.177 60.6752 282.145 60.9525 286.943 61.2878L286.946 61.288C287.06 61.2957 287.174 61.3043 287.29 61.3116C287.416 61.3204 287.543 61.3292 287.671 61.3376ZM167.407 69.3003C176.471 67.4372 186.178 65.4416 190.422 62.3151C192.694 61.0234 197.761 57.5614 199.852 54.0468C201.516 58.4497 206.103 68.6591 211.137 74.2793C217.43 81.3034 220.698 84.4044 230.792 89.4423C228.883 93.1046 224.899 100.659 224.24 101.581C223.581 102.502 221.073 107.799 219.902 110.332C217.573 115.311 212.744 127.163 212.068 134.744C211.345 135.149 209.499 135.673 207.9 134.526C206.71 133.673 205.759 132.443 204.98 131.435C204.449 130.749 203.997 130.165 203.606 129.876C202.641 129.162 196.844 125.018 187.838 122.64C178.834 120.262 169.638 120.039 163.835 120.759C158.032 121.479 155.797 123.023 152.208 125.513C153.628 118.265 156.453 102.605 156.383 97.951C156.354 96.0427 156.458 94.6478 156.584 92.9485C156.842 89.4694 157.196 84.7163 156.698 71.6721C159.843 70.8547 163.568 70.0891 167.407 69.3003Z" fill="#939393"/>
</g>
</svg>
