<svg width="16" height="2" viewBox="0 0 16 2" fill="none" xmlns="http://www.w3.org/2000/svg">
<path d="M0.708364 0.375001C0.625545 0.37383 0.543318 0.389131 0.466463 0.420015C0.389607 0.450898 0.319657 0.496749 0.260676 0.554902C0.201695 0.613055 0.15486 0.682349 0.122892 0.75876C0.0909249 0.835171 0.0744629 0.917173 0.0744629 1C0.0744629 1.08283 0.0909249 1.16483 0.122892 1.24124C0.15486 1.31765 0.201695 1.38695 0.260676 1.4451C0.319657 1.50325 0.389607 1.5491 0.466463 1.57999C0.543318 1.61087 0.625545 1.62617 0.708364 1.625H15.2917C15.3745 1.62617 15.4567 1.61087 15.5336 1.57999C15.6105 1.5491 15.6804 1.50325 15.7394 1.4451C15.7984 1.38695 15.8452 1.31765 15.8772 1.24124C15.9091 1.16483 15.9256 1.08283 15.9256 1C15.9256 0.917173 15.9091 0.835171 15.8772 0.75876C15.8452 0.682349 15.7984 0.613055 15.7394 0.554902C15.6804 0.496749 15.6105 0.450898 15.5336 0.420015C15.4567 0.389131 15.3745 0.37383 15.2917 0.375001H0.708364Z" fill="#000"/>
</svg>
