<svg width="94" height="24" viewBox="0 0 94 24" fill="none" xmlns="http://www.w3.org/2000/svg">
<path d="M4.25 4.5C2.458 4.5 1 5.958 1 7.75V16.25C1 18.042 2.458 19.5 4.25 19.5H19.75C21.542 19.5 23 18.042 23 16.25V7.75C23 5.958 21.542 4.5 19.75 4.5H4.25ZM14.0771 9.25C14.7196 9.25 15.377 9.50684 15.377 9.50684L15.1523 10.6621C15.1523 10.6621 14.6389 10.3242 14.1904 10.3242C13.4999 10.3242 13.2588 10.5505 13.2588 10.8535C13.2588 11.4465 15.1841 11.5425 15.1846 12.873C15.1846 13.98 13.805 14.75 12.8105 14.75C11.816 14.75 11.3018 14.4463 11.3018 14.4463L11.542 13.3379C11.542 13.3379 12.071 13.6426 12.874 13.6426C13.675 13.6426 13.7881 13.3061 13.7881 13.1621C13.7881 12.3126 11.8633 12.5377 11.8633 10.8857C11.8633 9.97174 12.6171 9.25 14.0771 9.25ZM9.88574 9.35547H11.29L10.4502 14.5859H9.0625L9.88574 9.35547ZM17.4258 9.35547H18.8857L19.9609 14.5859H18.6973L18.5479 13.8389H16.8105L16.5254 14.5859H15.1475L17.4258 9.35547ZM7.85156 9.35645H9.33691L7.22461 14.5859H5.69531L4.58105 10.3506C4.58105 10.3506 5.75454 10.9454 6.47754 12.5664C6.50804 12.7634 6.58105 13.0801 6.58105 13.0801L7.85156 9.35645ZM3.04004 9.36719H5.1875C5.7365 9.36719 5.94727 9.88184 5.94727 9.88184L6.41406 12.2549C5.77706 10.2029 3.04004 9.36719 3.04004 9.36719ZM17.9512 10.8633L17.1953 12.8398H18.3467L17.9512 10.8633Z" fill="black"/>
<path d="M30.25 4.5C28.458 4.5 27 5.958 27 7.75V16.25C27 18.042 28.458 19.5 30.25 19.5H45.75C47.542 19.5 49 18.042 49 16.25V7.75C49 5.958 47.542 4.5 45.75 4.5H30.25ZM35.5 7.5C36.4255 7.5 37.285 7.77979 38 8.25879C38.715 7.77979 39.5745 7.5 40.5 7.5C42.9855 7.5 45 9.5145 45 12C45 14.4855 42.9855 16.5 40.5 16.5C39.5745 16.5 38.715 16.2202 38 15.7412C37.285 16.2202 36.4255 16.5 35.5 16.5C33.0145 16.5 31 14.4855 31 12C31 9.5145 33.0145 7.5 35.5 7.5ZM38 15.7412C38.2627 15.7412 38.5227 15.6444 38.7654 15.4564C39.0081 15.2684 39.2286 14.9928 39.4143 14.6454C39.6 14.298 39.7473 13.8856 39.8479 13.4317C39.9484 12.9778 40.0001 12.4913 40.0001 12C40.0001 11.5087 39.9484 11.0222 39.8479 10.5683C39.7473 10.1144 39.6 9.70197 39.4143 9.35456C39.2286 9.00716 39.0081 8.73159 38.7654 8.54357C38.5227 8.35556 38.2627 8.25879 38 8.25879C37.7373 8.25879 37.4773 8.35556 37.2346 8.54357C36.9919 8.73159 36.7714 9.00716 36.5857 9.35456C36.4 9.70197 36.2527 10.1144 36.1521 10.5683C36.0516 11.0222 35.9999 11.5087 35.9999 12C35.9999 12.4913 36.0516 12.9778 36.1521 13.4317C36.2527 13.8856 36.4 14.298 36.5857 14.6454C36.7714 14.9928 36.9919 15.2684 37.2346 15.4564C37.4773 15.6444 37.7373 15.7412 38 15.7412Z" fill="black"/>
<path d="M65.3056 20C64.6142 20 64.1386 19.764 63.7189 19.5557C63.3145 19.3553 62.9649 19.1818 62.3889 19.1818C61.813 19.1818 61.4634 19.3553 61.0589 19.5557C60.6393 19.764 60.1637 20 59.4722 20C57.7899 20 55 15.9382 55 11.6137C55 8.74603 56.8791 6.50015 59.2778 6.50015C60.0661 6.50015 60.5452 6.73783 60.9679 6.94728C61.3693 7.1465 61.7161 7.31832 62.3889 7.31832C63.0617 7.31832 63.4086 7.1465 63.8099 6.94728C64.2327 6.73783 64.7118 6.50015 65.5001 6.50015C66.5361 6.50015 67.4573 6.90187 68.2386 7.69509C68.3701 7.82845 68.4346 8.01949 68.4125 8.21054C68.3903 8.40158 68.2845 8.57053 68.1266 8.66708C67.226 9.21812 66.6667 10.3861 66.6667 11.716C66.6667 13.2137 67.4461 14.5015 68.6057 14.9196C68.7578 14.9744 68.8815 15.0926 68.9476 15.2464C69.0141 15.3998 69.0176 15.5757 68.9565 15.7324C68.0127 18.1652 66.4427 20 65.3056 20ZM62.5834 6.09106C62.4442 6.09106 62.308 6.0387 62.2007 5.94052C62.0595 5.81124 61.9853 5.61816 62.0024 5.42139C62.007 5.37107 62.1202 4.17572 63.0108 3.21968C63.8484 2.31969 64.6639 2.05215 64.7538 2.02433C64.9439 1.96624 65.1493 2.0137 65.2986 2.15033C65.4483 2.28656 65.5218 2.49355 65.4942 2.70014C65.481 2.79873 65.3429 3.69668 64.6262 4.70426C63.8589 5.78261 62.763 6.06324 62.7168 6.0747C62.6724 6.08574 62.6277 6.09106 62.5834 6.09106Z" fill="black"/>
<path d="M83.6 11V13C83.6 13.3312 83.8684 13.6 84.2 13.6H88.5236C88.324 14.1664 88.0212 14.6792 87.6416 15.122L90.0548 17.2136C91.2636 15.8116 92 13.992 92 12C92 11.6688 91.9744 11.3248 91.9192 10.9192C91.8788 10.622 91.6248 10.4 91.3248 10.4H84.2C83.8684 10.4 83.6 10.6688 83.6 11ZM79.4448 13.5044C79.288 13.0308 79.2 12.5256 79.2 12C79.2 11.4744 79.288 10.9692 79.4448 10.4956L76.822 8.49C76.3008 9.5512 76 10.7396 76 12C76 13.2604 76.3008 14.4488 76.8224 15.51L79.4448 13.5044ZM86.746 15.934C85.9624 16.4816 85.0128 16.8 84 16.8C82.3152 16.8 80.8332 15.9256 79.9764 14.6088L77.4316 16.5548C78.878 18.634 81.2808 20 84 20C85.9872 20 87.8032 19.2672 89.2036 18.064L86.746 15.934ZM89.406 6.1188C87.9252 4.7524 86.0052 4 84 4C81.2808 4 78.878 5.366 77.4316 7.4456L79.9764 9.3916C80.8332 8.0744 82.3152 7.2 84 7.2C85.1776 7.2 86.3104 7.6324 87.1896 8.4172C87.4268 8.6292 87.7888 8.6188 88.0136 8.3936L89.4236 6.984C89.5392 6.8688 89.6024 6.7108 89.5992 6.5476C89.596 6.3844 89.526 6.2296 89.406 6.1188Z" fill="black"/>
</svg>
