<svg width="16" height="16" viewBox="0 0 16 16" fill="none" xmlns="http://www.w3.org/2000/svg">
<path d="M7.99027 0.0743561C7.82465 0.0769435 7.66683 0.145162 7.55147 0.264028C7.43612 0.382894 7.37266 0.542686 7.37503 0.708308V7.37497H0.708364C0.625545 7.3738 0.543318 7.3891 0.466463 7.41999C0.389607 7.45087 0.319657 7.49672 0.260676 7.55487C0.201695 7.61303 0.15486 7.68232 0.122892 7.75873C0.0909249 7.83514 0.0744629 7.91715 0.0744629 7.99997C0.0744629 8.0828 0.0909249 8.1648 0.122892 8.24122C0.15486 8.31763 0.201695 8.38692 0.260676 8.44507C0.319657 8.50323 0.389607 8.54908 0.466463 8.57996C0.543318 8.61084 0.625545 8.62615 0.708364 8.62497H7.37503V15.2916C7.37386 15.3745 7.38916 15.4567 7.42004 15.5335C7.45093 15.6104 7.49678 15.6803 7.55493 15.7393C7.61308 15.7983 7.68238 15.8451 7.75879 15.8771C7.8352 15.9091 7.9172 15.9255 8.00003 15.9255C8.08286 15.9255 8.16486 15.9091 8.24127 15.8771C8.31768 15.8451 8.38698 15.7983 8.44513 15.7393C8.50328 15.6803 8.54913 15.6104 8.58002 15.5335C8.6109 15.4567 8.6262 15.3745 8.62503 15.2916V8.62497H15.2917C15.3745 8.62615 15.4567 8.61084 15.5336 8.57996C15.6105 8.54908 15.6804 8.50323 15.7394 8.44507C15.7984 8.38692 15.8452 8.31763 15.8772 8.24122C15.9091 8.1648 15.9256 8.0828 15.9256 7.99997C15.9256 7.91715 15.9091 7.83514 15.8772 7.75873C15.8452 7.68232 15.7984 7.61303 15.7394 7.55487C15.6804 7.49672 15.6105 7.45087 15.5336 7.41999C15.4567 7.3891 15.3745 7.3738 15.2917 7.37497H8.62503V0.708308C8.62623 0.624656 8.61063 0.541614 8.57914 0.464103C8.54766 0.386593 8.50093 0.316192 8.44174 0.257073C8.38254 0.197954 8.31208 0.151319 8.23453 0.119933C8.15698 0.0885473 8.07392 0.0730488 7.99027 0.0743561Z" fill="#000"/>
</svg>
