<svg xmlns="http://www.w3.org/2000/svg" width="18" height="14" viewBox="0 0 18 14" fill="none">
                            <path d="M2.125 0.75C1.09473 0.75 0.25 1.59473 0.25 2.625V11.375C0.25 12.4004 1.09473 13.25 2.125 13.25H15.875C16.9053 13.25 17.75 12.4053 17.75 11.375V2.625C17.75 1.59473 16.9004 0.75 15.875 0.75H2.125ZM2.125 2H6.5V3.25H7.75V2H15.875C16.2266 2 16.5 2.27344 16.5 2.625V7H12.75V8.25H16.5V11.375C16.5 11.7266 16.2266 12 15.875 12H7.75V10.75H6.5V12H2.125C1.77344 12 1.5 11.7266 1.5 11.375V2.625C1.5 2.26855 1.76855 2 2.125 2ZM4.625 4.5C3.59473 4.5 2.75 5.34473 2.75 6.375C2.75 7.34668 3.51172 8.15234 4.46875 8.23047L2.78906 9.82715L3.64844 10.7354L6.26562 8.25H7.98438L10.6016 10.7354L11.4609 9.82715L9.78125 8.23047C10.7383 8.15234 11.5 7.34668 11.5 6.375C11.5 5.34473 10.6553 4.5 9.625 4.5C8.85352 4.5 8.23828 4.98828 7.85742 5.55957L7.84766 5.56445V5.57422L7.125 6.70703L6.40234 5.56445L6.39258 5.55957C6.01172 4.98828 5.39648 4.5 4.625 4.5ZM4.625 5.75C4.90332 5.75 5.11328 5.88672 5.35742 6.25293L5.80664 6.96094L5.76758 7H4.625C4.27344 7 4 6.72656 4 6.375C4 6.02344 4.27344 5.75 4.625 5.75ZM9.625 5.75C9.97656 5.75 10.25 6.02344 10.25 6.375C10.25 6.72656 9.97656 7 9.625 7H8.48242L8.44336 6.96094L8.89258 6.25293C9.13672 5.88672 9.34668 5.75 9.625 5.75Z" fill="black"/>
                            </svg>