<svg width="10" height="6" viewBox="0 0 10 6" fill="none" xmlns="http://www.w3.org/2000/svg">
<path d="M8.99564 0.594533C8.89013 0.597027 8.78988 0.641114 8.71673 0.717189L4.99954 4.43438L1.28236 0.717189C1.24508 0.678871 1.2005 0.648413 1.15126 0.627615C1.10201 0.606816 1.0491 0.596098 0.995638 0.596095C0.916065 0.596116 0.838306 0.619868 0.772302 0.664313C0.706298 0.708759 0.655049 0.771878 0.625106 0.845603C0.595163 0.919328 0.587887 1.00031 0.604209 1.07819C0.62053 1.15607 0.659708 1.22731 0.716732 1.28281L4.71673 5.28281C4.79175 5.3578 4.89348 5.39992 4.99954 5.39992C5.10561 5.39992 5.20734 5.3578 5.28236 5.28281L9.28236 1.28281C9.34045 1.22695 9.38031 1.15485 9.39673 1.07595C9.41314 0.997045 9.40535 0.915024 9.37436 0.84063C9.34336 0.766235 9.29063 0.702935 9.22305 0.659022C9.15547 0.615109 9.07621 0.592631 8.99564 0.594533Z" fill="black"/>
</svg>
