<svg width="28" height="28" viewBox="0 0 28 28" fill="none" xmlns="http://www.w3.org/2000/svg">
<rect x="0.5" y="-0.5" width="27" height="27" rx="13.5" transform="matrix(1 0 0 -1 0 27)" fill="white"/>
<rect x="0.5" y="-0.5" width="27" height="27" rx="13.5" transform="matrix(1 0 0 -1 0 27)" stroke="#DDDDDD"/>
<path d="M19.4422 11.0001C19.2985 11.0033 19.1619 11.0583 19.0623 11.1533L13.9988 15.7944L8.93535 11.1533C8.88457 11.1054 8.82385 11.0674 8.75676 11.0414C8.68968 11.0155 8.6176 11.0021 8.54478 11.0021C8.43639 11.0021 8.33047 11.0318 8.24056 11.0873C8.15065 11.1428 8.08084 11.2216 8.04005 11.3136C7.99926 11.4057 7.98935 11.5068 8.01159 11.604C8.03382 11.7013 8.08719 11.7902 8.16486 11.8595L13.6136 16.8538C13.7158 16.9474 13.8543 17 13.9988 17C14.1433 17 14.2819 16.9474 14.3841 16.8538L19.8328 11.8595C19.9119 11.7898 19.9662 11.6997 19.9886 11.6012C20.0109 11.5027 20.0003 11.4003 19.9581 11.3074C19.9159 11.2145 19.844 11.1355 19.752 11.0807C19.6599 11.0258 19.552 10.9978 19.4422 11.0001Z" fill="black"/>
</svg>
