<svg width="16" height="17" viewBox="0 0 16 17" fill="none" xmlns="http://www.w3.org/2000/svg">
<path d="M5 2.5C4.72266 2.5 4.44531 2.53906 4.17969 2.59375L5 3.41797V3.5C6.10156 3.5 7.04688 4.09375 7.57031 4.97656L8 5.70312L8.42969 4.97656C8.95313 4.09375 9.89844 3.5 11 3.5C12.5352 3.5 13.7773 4.64453 13.9609 6.13281L13.9688 6.17188C13.9883 6.26562 14 6.37109 14 6.5C14 7.68359 13.3281 9.04297 12.0586 10.4766L12.7656 11.1875C14.2422 9.53906 15 7.96484 15 6.5C15 6.3125 14.9805 6.14844 14.9492 5.99219C14.6953 4.02734 13.0312 2.5 11 2.5C9.75781 2.5 8.73047 3.14844 8 4.03906C7.26953 3.14844 6.24219 2.5 5 2.5ZM2.72656 2.52344L2.02344 3.22656L2.33984 3.54688C1.65234 4.17188 1.17578 5.02344 1.05469 5.99219C1.01953 6.14844 1 6.31641 1 6.5C1 8.78516 2.74609 10.8477 4.41406 12.3789C6.07812 13.9141 7.74219 14.9258 7.74219 14.9258L8 15.0859L8.25781 14.9258C8.25781 14.9258 9.77734 13.9844 11.3633 12.5703L13.2695 14.4805L13.9805 13.7695L2.72656 2.52344ZM3.04688 4.25L10.6562 11.8594C9.32812 13.0391 8.20703 13.7422 8 13.875C7.76953 13.7305 6.54297 12.9844 5.08594 11.6445C3.50391 10.1875 2 8.25 2 6.5C2 6.36719 2.01172 6.26172 2.03125 6.17188L2.03906 6.14844V6.125C2.13281 5.37891 2.50781 4.72656 3.04688 4.25Z" fill="#939393"/>
</svg>
