<svg width="20" height="20" viewBox="0 0 20 20" fill="none" xmlns="http://www.w3.org/2000/svg">
<path d="M10 0C4.486 0 0 4.486 0 10C0 15.003 3.697 19.1475 8.5 19.875V12.5H6.5C6.224 12.5 6 12.2765 6 12V10.5C6 10.2235 6.224 10 6.5 10H8.5V8.184C8.5 5.8085 9.7135 4.5 11.917 4.5C12.81 4.5 13.5145 4.562 13.544 4.5645C13.802 4.5875 14 4.8035 14 5.0625V6.75C14 7.0265 13.776 7.25 13.5 7.25H12.5C11.9485 7.25 11.5 7.6985 11.5 8.25V10H13.5C13.6435 10 13.78 10.0615 13.875 10.169C13.97 10.277 14.014 10.42 13.9965 10.562L13.809 12.062C13.7775 12.312 13.5645 12.5 13.3125 12.5H11.5V19.875C16.303 19.1475 20 15.003 20 10C20 4.486 15.514 0 10 0Z" fill="#287DE1"/>
</svg>
