<svg width="21" height="18" viewBox="0 0 21 18" fill="none" xmlns="http://www.w3.org/2000/svg">
<path d="M1.91512 7.80784C8.19912 5.04334 16.3311 1.67284 17.4536 1.20634C20.3981 -0.0146596 21.3016 0.21934 20.8511 2.92334C20.5276 4.86684 19.5941 11.3013 18.8501 15.3063C18.4086 17.6813 17.4181 17.9628 15.8606 16.9353C15.1116 16.4408 11.3311 13.9408 10.5106 13.3538C9.76162 12.8188 8.72862 12.1753 10.0241 10.9078C10.4851 10.4563 13.5071 7.57084 15.8616 5.32484C16.1701 5.02984 15.7826 4.54534 15.4266 4.78184C12.2531 6.88634 7.85312 9.80734 7.29312 10.1878C6.44712 10.7623 5.63462 11.0258 4.17612 10.6068C3.07412 10.2903 1.99762 9.91284 1.57862 9.76884C-0.0348845 9.21484 0.348115 8.49734 1.91512 7.80784Z" fill="#1CB7FA"/>
</svg>
