<svg width="18" height="18" viewBox="0 0 18 18" fill="none" xmlns="http://www.w3.org/2000/svg">
<path d="M2.75 0C1.24011 0 0 1.24011 0 2.75V15.25C0 16.7599 1.24011 18 2.75 18H15.25C16.7599 18 18 16.7599 18 15.25V2.75C18 1.24011 16.7599 0 15.25 0H2.75ZM10.75 2.5C11.165 2.5 11.5 2.835 11.5 3.25C11.5 4.765 12.735 6 14.25 6C14.665 6 15 6.335 15 6.75C15 7.165 14.665 7.5 14.25 7.5C13.2 7.5 12.24 7.12023 11.5 6.49023V11.5C11.5 13.705 9.705 15.5 7.5 15.5C5.295 15.5 3.5 13.705 3.5 11.5C3.5 9.295 5.295 7.5 7.5 7.5C7.605 7.5 7.70957 7.50477 7.80957 7.50977C8.22457 7.54477 8.535 7.90543 8.5 8.31543C8.47 8.73043 8.11031 9.03977 7.69531 9.00977C7.63031 9.00477 7.565 9 7.5 9C6.12 9 5 10.12 5 11.5C5 12.88 6.12 14 7.5 14C8.88 14 10 12.88 10 11.5V3.25C10 2.835 10.335 2.5 10.75 2.5Z" fill="black"/>
</svg>
