<svg width="20" height="20" viewBox="0 0 20 20" fill="none" xmlns="http://www.w3.org/2000/svg">
<path d="M10 0C4.485 0 0 4.485 0 10C0 11.595 0.385 13.17 1.115 14.585L0.0450001 18.415C-0.0749999 18.85 0.05 19.315 0.365 19.635C0.605 19.87 0.925 20 1.25 20C1.365 20 1.475 19.985 1.585 19.955L5.415 18.885C6.83 19.615 8.41 20 10 20C15.515 20 20 15.515 20 10C20 4.485 15.515 0 10 0ZM15.18 13.685C14.96 14.3 13.88 14.895 13.395 14.94C12.91 14.985 12.455 15.16 10.225 14.28C7.535 13.22 5.835 10.465 5.705 10.285C5.57 10.11 4.625 8.855 4.625 7.55C4.625 6.25 5.31 5.61 5.55 5.345C5.795 5.08 6.08 5.015 6.255 5.015C6.435 5.015 6.61 5.015 6.765 5.02C6.95 5.03 7.16 5.04 7.36 5.48C7.595 6 8.11 7.31 8.175 7.445C8.24 7.575 8.285 7.73 8.195 7.905C8.11 8.08 8.065 8.19 7.93 8.345C7.8 8.5 7.655 8.69 7.535 8.81C7.405 8.94 7.265 9.085 7.42 9.35C7.575 9.615 8.105 10.48 8.89 11.18C9.9 12.08 10.75 12.36 11.015 12.495C11.28 12.625 11.435 12.605 11.59 12.425C11.745 12.25 12.25 11.655 12.43 11.39C12.605 11.125 12.78 11.17 13.025 11.26C13.265 11.345 14.565 11.985 14.83 12.12C15.095 12.25 15.27 12.315 15.335 12.425C15.4 12.535 15.4 13.065 15.18 13.685Z" fill="#4AD434"/>
</svg>
